<svg width="138" height="54" viewBox="0 0 138 54" fill="none" xmlns="http://www.w3.org/2000/svg">
<path d="M133.988 34.024H137.188V30.6614H133.988V34.024Z" fill="#232E35"/>
<path d="M9.05548 17.918C4.17836 27.6692 8.25441 39.5938 18.1134 44.4171C27.9723 49.2404 40.0291 45.2085 44.9062 35.4573C49.7834 25.7061 45.7073 13.7815 35.8484 8.95821C25.9894 4.13492 13.9326 8.16683 9.05548 17.918ZM30.0672 37.2453C29.0918 39.1956 26.6804 40.002 24.7086 39.0373C22.7368 38.0726 21.9216 35.6877 22.8971 33.7375C23.8725 31.7872 26.2838 30.9809 28.2556 31.9455C30.2274 32.9102 31.0426 35.2951 30.0672 37.2453ZM36.4857 21.9589C36.6735 24.0369 34.982 25.8575 32.881 26.0433L21.7043 26.7543C19.6033 26.9402 17.7626 25.2673 17.5748 23.1893C17.387 21.1113 19.0785 19.2907 21.1795 19.1049L32.3562 18.3939C34.5468 18.2519 36.3875 19.9248 36.4857 21.9589Z" fill="#232E35"/>
<path d="M62.3041 20.735H65.4234V29.7862C65.4191 30.6342 65.2167 31.3756 64.8161 32.0106C64.4156 32.6413 63.8616 33.1313 63.1542 33.4808C62.4511 33.8302 61.6372 34.0049 60.7124 34.0049C59.8943 34.0049 59.1507 33.8621 58.4816 33.5766C57.8169 33.2911 57.2863 32.8479 56.89 32.2471C56.498 31.6462 56.3041 30.8771 56.3083 29.9396H59.4596C59.4724 30.2762 59.5363 30.5639 59.6514 30.8025C59.7707 31.0369 59.9347 31.2137 60.1436 31.333C60.3524 31.4523 60.6017 31.512 60.8914 31.512C61.194 31.512 61.4497 31.4481 61.6585 31.3202C61.8673 31.1881 62.0249 30.9943 62.1315 30.7386C62.2423 30.4829 62.2998 30.1654 62.3041 29.7862V20.735ZM71.9775 33.9921C71.351 33.9921 70.7949 33.8877 70.3091 33.6789C69.8276 33.4658 69.4462 33.1462 69.165 32.7201C68.888 32.2897 68.7495 31.7506 68.7495 31.1029C68.7495 30.5575 68.8454 30.0972 69.0371 29.7222C69.2289 29.3472 69.4931 29.0425 69.8297 28.8082C70.1664 28.5738 70.5542 28.397 70.9931 28.2776C71.432 28.1541 71.9008 28.071 72.3993 28.0283C72.9576 27.9772 73.4072 27.9239 73.7481 27.8685C74.089 27.8089 74.3361 27.7258 74.4895 27.6193C74.6472 27.5085 74.726 27.3529 74.726 27.1526V27.1207C74.726 26.7925 74.6131 26.539 74.3873 26.36C74.1614 26.181 73.8567 26.0916 73.4732 26.0916C73.0599 26.0916 72.7275 26.181 72.476 26.36C72.2246 26.539 72.0648 26.7862 71.9966 27.1015L69.1138 26.9992C69.1991 26.4026 69.4185 25.87 69.7722 25.4012C70.1302 24.9282 70.6202 24.5575 71.2424 24.289C71.8688 24.0163 72.6209 23.8799 73.4988 23.8799C74.1252 23.8799 74.7026 23.9545 75.231 24.1036C75.7594 24.2485 76.2197 24.4616 76.6117 24.7428C77.0037 25.0198 77.3063 25.3607 77.5194 25.7656C77.7367 26.1704 77.8454 26.6327 77.8454 27.1526V33.8259H74.905V32.458H74.8283C74.6536 32.7904 74.4299 33.0717 74.1572 33.3018C73.8887 33.5319 73.5712 33.7045 73.2047 33.8195C72.8425 33.9346 72.4334 33.9921 71.9775 33.9921ZM72.9427 31.9467C73.2793 31.9467 73.5819 31.8785 73.8503 31.7421C74.1231 31.6058 74.3404 31.4183 74.5023 31.1796C74.6643 30.9367 74.7452 30.6555 74.7452 30.3359V29.4026C74.6557 29.4495 74.5471 29.4921 74.4192 29.5305C74.2957 29.5688 74.1593 29.605 74.0101 29.6391C73.861 29.6732 73.7076 29.7031 73.5499 29.7286C73.3922 29.7542 73.241 29.7776 73.0961 29.7989C72.802 29.8458 72.5506 29.9183 72.3418 30.0163C72.1373 30.1143 71.9796 30.2421 71.8688 30.3998C71.7623 30.5532 71.709 30.7364 71.709 30.9495C71.709 31.2734 71.8241 31.5205 72.0542 31.691C72.2885 31.8614 72.5847 31.9467 72.9427 31.9467ZM81.5566 33.8259V24.0077H84.6823V33.8259H81.5566ZM83.1226 22.8636C82.6837 22.8636 82.3066 22.7187 81.9912 22.4289C81.6759 22.1349 81.5182 21.7812 81.5182 21.3678C81.5182 20.9587 81.6759 20.6093 81.9912 20.3195C82.3066 20.0255 82.6837 19.8785 83.1226 19.8785C83.5658 19.8785 83.943 20.0255 84.254 20.3195C84.5694 20.6093 84.727 20.9587 84.727 21.3678C84.727 21.7812 84.5694 22.1349 84.254 22.4289C83.943 22.7187 83.5658 22.8636 83.1226 22.8636ZM91.5975 20.735V33.8259H88.4718V20.735H91.5975ZM103.959 27.0056L101.089 27.0823C101.059 26.8778 100.978 26.6967 100.846 26.539C100.714 26.3771 100.541 26.2514 100.328 26.1619C100.119 26.0681 99.8764 26.0212 99.5994 26.0212C99.2372 26.0212 98.9283 26.0937 98.6726 26.2386C98.4211 26.3835 98.2976 26.5795 98.3018 26.8266C98.2976 27.0184 98.3743 27.1846 98.5319 27.3252C98.6939 27.4658 98.9815 27.5788 99.3949 27.664L101.287 28.022C102.267 28.2095 102.996 28.5205 103.473 28.9552C103.955 29.3898 104.197 29.9651 104.202 30.681C104.197 31.3543 103.997 31.9403 103.601 32.4389C103.209 32.9374 102.672 33.3252 101.99 33.6022C101.308 33.8749 100.528 34.0113 99.6506 34.0113C98.2486 34.0113 97.1427 33.7237 96.3331 33.1484C95.5277 32.5688 95.0675 31.7933 94.9524 30.8217L98.0398 30.745C98.1079 31.1029 98.2848 31.3756 98.5703 31.5631C98.8558 31.7506 99.2202 31.8444 99.6633 31.8444C100.064 31.8444 100.39 31.7698 100.641 31.6207C100.893 31.4715 101.021 31.2734 101.025 31.0262C101.021 30.8046 100.923 30.6278 100.731 30.4957C100.539 30.3593 100.239 30.2528 99.8295 30.1761L98.1165 29.8501C97.1321 29.6711 96.3991 29.3408 95.9176 28.8593C95.4361 28.3735 95.1974 27.7556 95.2017 27.0056C95.1974 26.3494 95.3721 25.789 95.7258 25.3245C96.0795 24.8558 96.5824 24.4978 97.2344 24.2506C97.8863 24.0035 98.6555 23.8799 99.5419 23.8799C100.871 23.8799 101.92 24.159 102.687 24.7173C103.454 25.2712 103.878 26.034 103.959 27.0056ZM112.124 34.0113C111.092 34.0113 110.206 33.8004 109.465 33.3785C108.727 32.9523 108.158 32.36 107.758 31.6015C107.362 30.8387 107.163 29.9545 107.163 28.9488C107.163 27.9389 107.362 27.0546 107.758 26.2961C108.158 25.5333 108.727 24.941 109.465 24.5191C110.206 24.093 111.092 23.8799 112.124 23.8799C113.155 23.8799 114.039 24.093 114.776 24.5191C115.518 24.941 116.087 25.5333 116.483 26.2961C116.884 27.0546 117.084 27.9389 117.084 28.9488C117.084 29.9545 116.884 30.8387 116.483 31.6015C116.087 32.36 115.518 32.9523 114.776 33.3785C114.039 33.8004 113.155 34.0113 112.124 34.0113ZM112.143 31.6526C112.518 31.6526 112.835 31.5376 113.095 31.3075C113.355 31.0773 113.553 30.7577 113.69 30.3487C113.83 29.9396 113.901 29.4666 113.901 28.9296C113.901 28.3842 113.83 27.9069 113.69 27.4978C113.553 27.0887 113.355 26.7691 113.095 26.539C112.835 26.3089 112.518 26.1938 112.143 26.1938C111.755 26.1938 111.427 26.3089 111.158 26.539C110.894 26.7691 110.692 27.0887 110.551 27.4978C110.415 27.9069 110.347 28.3842 110.347 28.9296C110.347 29.4666 110.415 29.9396 110.551 30.3487C110.692 30.7577 110.894 31.0773 111.158 31.3075C111.427 31.5376 111.755 31.6526 112.143 31.6526ZM123.611 28.2265V33.8259H120.485V24.0077H123.457V25.8103H123.566C123.783 25.2095 124.154 24.7386 124.678 24.3977C125.202 24.0525 125.827 23.8799 126.551 23.8799C127.241 23.8799 127.84 24.0354 128.347 24.3465C128.859 24.6533 129.255 25.0837 129.536 25.6377C129.822 26.1874 129.962 26.8309 129.958 27.5681V33.8259H126.832V28.1818C126.837 27.6363 126.698 27.2102 126.417 26.9033C126.14 26.5965 125.754 26.4431 125.26 26.4431C124.932 26.4431 124.642 26.5156 124.391 26.6604C124.143 26.8011 123.952 27.0035 123.815 27.2677C123.683 27.5319 123.615 27.8515 123.611 28.2265Z" fill="black"/>
</svg>
